<svg id="Layer_1" data-name="Layer 1" xmlns="http://www.w3.org/2000/svg" viewBox="0 0 707.47 707.47"><defs><style>.cls-1{stroke:#231f20;stroke-width:5px;}</style></defs><title>ColorWheelCircleGraphics_Outlined</title>
<path class="cls-1" d="M913.73,1218a55.19,55.19,0,1,0-55.18,55.19A55.19,55.19,0,0,0,913.73,1218" transform="translate(-208.77 -864.27)"/><path class="cls-1" d="M211.27,1218a55.19,55.19,0,1,0,55.18-55.19A55.18,55.18,0,0,0,211.27,1218" transform="translate(-208.77 -864.27)"/><path class="cls-1" d="M562.5,1569.23a55.19,55.19,0,1,0-55.19-55.18,55.18,55.18,0,0,0,55.19,55.18" transform="translate(-208.77 -864.27)"/><path class="cls-1" d="M913.73,1218a55.19,55.19,0,1,0-55.18,55.19A55.19,55.19,0,0,0,913.73,1218" transform="translate(-208.77 -864.27)"/><circle class="cls-1" cx="562.5" cy="921.95" r="55.19" transform="translate(-349.18 -762.26) rotate(-9.22)"/><path class="cls-1" d="M368.69,987.51a55.18,55.18,0,1,0,20.85-75.21A55.19,55.19,0,0,0,368.69,987.51Z" transform="translate(-208.77 -864.27)"/><path class="cls-1" d="M332,1411.81A55.18,55.18,0,1,0,256.8,1391,55.19,55.19,0,0,0,332,1411.81Z" transform="translate(-208.77 -864.27)"/><path class="cls-1" d="M660.25,1502.84a55.18,55.18,0,1,0,20.85-75.21A55.19,55.19,0,0,0,660.25,1502.84Z" transform="translate(-208.77 -864.27)"/><path class="cls-1" d="M847.34,1120.25a55.18,55.18,0,1,0-75.21-20.85A55.19,55.19,0,0,0,847.34,1120.25Z" transform="translate(-208.77 -864.27)"/><path class="cls-1" d="M281.18,1116a55.19,55.19,0,1,0-19.87-75.48A55.19,55.19,0,0,0,281.18,1116Z" transform="translate(-208.77 -864.27)"/><path class="cls-1" d="M463.25,1501a55.19,55.19,0,1,0-75.48,19.87A55.2,55.2,0,0,0,463.25,1501Z" transform="translate(-208.77 -864.27)"/><path class="cls-1" d="M792.65,1414.26a55.19,55.19,0,1,0-19.87-75.48A55.18,55.18,0,0,0,792.65,1414.26Z" transform="translate(-208.77 -864.27)"/><path class="cls-1" d="M761.53,989.51a55.19,55.19,0,1,0-75.48,19.87A55.2,55.2,0,0,0,761.53,989.51Z" transform="translate(-208.77 -864.27)"/></svg>
