<svg id="Logo_Iterations_-_First" data-name="Logo Iterations - First" xmlns="http://www.w3.org/2000/svg" viewBox="0 0 337.23 121.87"><defs><style>.cls-1{fill:#9e1f63;}.cls-2{fill:#fff;}.cls-3{fill:#f15a29;}.cls-4{fill:#00a79d;}</style></defs><title>group-t-spectrum-logo-color-and-white</title><path class="cls-1" d="M56.14,75.26a1.44,1.44,0,0,0-1.37-.71h-.84a2.32,2.32,0,0,0-1.88.84,10.54,10.54,0,0,1-7.65,3.22A10.8,10.8,0,0,1,33.61,67.83,10.79,10.79,0,0,1,52,60.47a2.45,2.45,0,0,0,1.88.79h.72A1.51,1.51,0,0,0,56,60.51,1.46,1.46,0,0,0,55.72,59,14.6,14.6,0,0,0,44.4,53.57c-8,0-14.68,6.53-14.68,14.26a14.64,14.64,0,0,0,26.13,9A1.49,1.49,0,0,0,56.14,75.26Z"/><path class="cls-1" d="M106,78.35H95.25V55.59a1.58,1.58,0,0,0-1.72-1.71h-.34a1.57,1.57,0,0,0-1.72,1.71v24.7A1.58,1.58,0,0,0,93.19,82H106a1.58,1.58,0,0,0,1.72-1.72v-.23A1.57,1.57,0,0,0,106,78.35Z"/><path class="cls-1" d="M159.28,79.72l-6.64-8.46a8.45,8.45,0,0,0,5.87-8.45c0-5.34-3.68-8.93-9.16-8.93h-7.67A1.57,1.57,0,0,0,140,55.59v24.7A1.58,1.58,0,0,0,141.68,82H142a1.58,1.58,0,0,0,1.71-1.72V71.75h4.32l7.38,9.36a2.24,2.24,0,0,0,1.86.9h.88a1.49,1.49,0,0,0,1.44-.74A1.45,1.45,0,0,0,159.28,79.72Zm-4.65-16.91a5,5,0,0,1-5.28,5.28h-5.62V57.54h5.62A4.94,4.94,0,0,1,154.63,62.81Z"/><path class="cls-2" d="M166.78,77.67h12.5v3.84H162.94V55h3.84Z"/><path class="cls-2" d="M196.68,73.68h-9.53c-1,2.43-2.36,5.62-3.19,7.83h-4.15l10.68-26.94h2.81L204,81.51h-4.1Zm-8.09-3.61h6.61l-3.27-9.38Z"/><path class="cls-2" d="M204.48,73.53V55h3.87V73.57c0,2.92,3.15,4.36,6,4.36s5.92-1.48,5.92-4.4V55h3.88V73.57c0,5.39-5.24,8.2-9.8,8.2S204.48,79,204.48,73.53Z"/><path class="cls-2" d="M228.78,81.51V54.87l3,0L244.7,73.64V54.91h3.8v26.6h-3L232.62,62.93V81.51Z"/><path class="cls-2" d="M255.43,58.75a12.82,12.82,0,0,1,9.2-4A12.45,12.45,0,0,1,277,64.6h-3.8a8.64,8.64,0,0,0-8.58-6,9,9,0,0,0-6.54,2.85,9.81,9.81,0,0,0,0,13.6,9.15,9.15,0,0,0,15.35-3.5h3.76c-1.52,6-6.38,10.15-12.57,10.15a12.67,12.67,0,0,1-9.2-4,13.76,13.76,0,0,1,0-19Z"/><path class="cls-2" d="M283.9,66.16h11.25V55H299V81.51h-3.88V70H283.9V81.51h-3.83V55h3.83Z"/><circle class="cls-3" cx="89.76" cy="39.12" r="8.7"/><circle class="cls-3" cx="113.94" cy="28.44" r="7.04"/><circle class="cls-4" cx="138.93" cy="25.83" r="6.04"/><circle class="cls-4" cx="160.92" cy="29" r="4.71"/><path class="cls-2" d="M191.69,103c0,2.62-.3,4.83-3.49,4.83-2.66,0-3.17-1.82-3.17-3.24v-.07h1.67v.08a1.58,1.58,0,0,0,1.59,1.81c1.42,0,1.75-1.06,1.75-3v-1.76a2.13,2.13,0,0,1-2.25,1.41c-1.92,0-2.75-1.37-2.75-4V93.62c0-2.45,1.08-3.9,3-3.9a2,2,0,0,1,2.15,1.35c0-.36.07-.85.1-1.14h1.43c0,.71-.05,1.92-.05,3.51Zm-5-9.25v5.15c0,1.78.47,2.65,1.5,2.65,1.59,0,1.84-1.66,1.84-3.47v-3.9c0-1.61-.17-2.88-1.66-2.88C187.19,91.25,186.71,92.15,186.71,93.7Z"/><path class="cls-2" d="M195.42,96.82V99c0,1.38.27,2.85,1.64,2.85s1.56-1,1.56-2.37v-.12h1.62v.1c0,1.57-.37,3.83-3.18,3.83-2.61,0-3.26-1.74-3.26-4.42V93.85c0-2,.73-4.13,3.3-4.13s3.18,1.88,3.18,4.14v3Zm3.25-1.37V93.73c0-1.23-.18-2.57-1.59-2.57s-1.65,1.13-1.65,2.59v1.7Z"/><path class="cls-2" d="M201.25,89.93h1.54V86.67h1.63v3.26h1.91V91.4h-1.91v9.11c0,.69.13,1.38,1,1.38a4.39,4.39,0,0,0,.85-.08v1.29a4.19,4.19,0,0,1-1.38.19c-1.19,0-2.07-.53-2.07-2.48V91.4h-1.54Z"/><path class="cls-2" d="M211.93,89.93c.91,4.91,1.79,9.59,1.91,11.09h0c.27-2.1,1.23-6.72,2-11.09h1.67l-2.92,13.91c-.78,3.64-1.82,3.91-3.25,3.91a4.66,4.66,0,0,1-.9-.1v-1.53a4.14,4.14,0,0,0,.73.08c1,0,1.39-.44,1.79-2.61l-2.88-13.66Z"/><path class="cls-2" d="M225.35,93.6v5.62c0,2.87-1.34,4.1-3.37,4.1s-3.3-1.2-3.3-4V93.57c0-2.47,1.27-3.85,3.38-3.85S225.35,91.16,225.35,93.6Zm-5,0v5.8c0,1.52.52,2.48,1.67,2.48s1.66-.72,1.66-2.5V93.56c0-1.37-.47-2.36-1.66-2.36S220.35,92.06,220.35,93.56Z"/><path class="cls-2" d="M234,99.62c0,1.65,0,2.88,0,3.49h-1.57c0-.23-.07-.91-.07-1.4a2.16,2.16,0,0,1-2.35,1.61c-1,0-2.55-.38-2.55-3.35v-10h1.65v9.61c0,1.64.44,2.27,1.47,2.27s1.75-.56,1.75-3.27V89.93H234Z"/><path class="cls-2" d="M236.45,94.42c0-2.11,0-3.36,0-4.49H238c0,.37.06,1.11.06,2a2.85,2.85,0,0,1,2.75-2.22v2c-1.66,0-2.71,1.09-2.71,3.39v7.92h-1.66Z"/><path class="cls-4" d="M251.62,99v.18c0,2.25-.57,4.14-3.18,4.14-2.46,0-3.11-1.72-3.11-4.38V93.68c0-2.25.83-4,3.22-4,2.57,0,3.07,1.89,3.07,3.68V94H250v-.43c0-1.24-.21-2.36-1.46-2.36-1.08,0-1.51.8-1.51,2.47v5.64c0,1.27.24,2.61,1.48,2.61s1.49-.7,1.49-2.51V99Z"/><path class="cls-4" d="M259.93,93.6v5.62c0,2.87-1.34,4.1-3.37,4.1s-3.3-1.2-3.3-4V93.57c0-2.47,1.27-3.85,3.38-3.85S259.93,91.16,259.93,93.6Zm-5,0v5.8c0,1.52.52,2.48,1.66,2.48s1.67-.72,1.67-2.5V93.56c0-1.37-.47-2.36-1.66-2.36S254.93,92.06,254.93,93.56Z"/><path class="cls-4" d="M262,103.11V85h1.65v18.14Z"/><path class="cls-4" d="M272.46,93.6v5.62c0,2.87-1.34,4.1-3.37,4.1s-3.3-1.2-3.3-4V93.57c0-2.47,1.27-3.85,3.38-3.85S272.46,91.16,272.46,93.6Zm-5,0v5.8c0,1.52.52,2.48,1.67,2.48s1.66-.72,1.66-2.5V93.56c0-1.37-.47-2.36-1.66-2.36S267.46,92.06,267.46,93.56Z"/><path class="cls-4" d="M274.57,94.42c0-2.11,0-3.36,0-4.49h1.58c0,.37.06,1.11.06,2a2.85,2.85,0,0,1,2.75-2.22v2c-1.66,0-2.71,1.09-2.71,3.39v7.92h-1.65Z"/><path class="cls-2" d="M290.11,93.6v5.62c0,2.87-1.34,4.1-3.37,4.1s-3.3-1.2-3.3-4V93.57c0-2.47,1.27-3.85,3.38-3.85S290.11,91.16,290.11,93.6Zm-5,0v5.8c0,1.52.52,2.48,1.67,2.48s1.66-.72,1.66-2.5V93.56c0-1.37-.47-2.36-1.65-2.36S285.11,92.06,285.11,93.56Z"/><path class="cls-2" d="M292.22,93.93c0-2.64,0-3.34,0-4h1.57a12.69,12.69,0,0,1,.07,1.35,2.34,2.34,0,0,1,2.41-1.56c1.41,0,2.57.79,2.57,3.2v10.19h-1.65V93.24c0-1.29-.43-2-1.44-2s-1.86.56-1.86,3.22v8.64h-1.65Z"/><circle class="cls-3" cx="73.46" cy="68.75" r="14.5"/><path class="cls-1" d="M121.93,54.25a14.5,14.5,0,1,0,14.5,14.5A14.5,14.5,0,0,0,121.93,54.25Zm0,25.45a10.94,10.94,0,1,1,10.93-10.94A10.94,10.94,0,0,1,121.92,79.7Z"/></svg>