<?xml version="1.0" encoding="UTF-8" standalone="no"?>
<svg
   xmlns:dc="http://purl.org/dc/elements/1.1/"
   xmlns:cc="http://creativecommons.org/ns#"
   xmlns:rdf="http://www.w3.org/1999/02/22-rdf-syntax-ns#"
   xmlns:svg="http://www.w3.org/2000/svg"
   xmlns="http://www.w3.org/2000/svg"
   xmlns:sodipodi="http://sodipodi.sourceforge.net/DTD/sodipodi-0.dtd"
   xmlns:inkscape="http://www.inkscape.org/namespaces/inkscape"
   id="Logo_Iterations_-_First"
   data-name="Logo Iterations - First"
   viewBox="0 0 269.27999 88.039999"
   version="1.1"
   sodipodi:docname="color-launch-logo-cropped.svg"
   width="269.28"
   height="88.040001"
   inkscape:version="0.92.3 (2405546, 2018-03-11)">
  <metadata
     id="metadata3906">
    <rdf:RDF>
      <cc:Work
         rdf:about="">
        <dc:format>image/svg+xml</dc:format>
        <dc:type
           rdf:resource="http://purl.org/dc/dcmitype/StillImage" />
        <dc:title>group-t-spectrum-logo-color-and-white</dc:title>
      </cc:Work>
    </rdf:RDF>
  </metadata>
  <sodipodi:namedview
     pagecolor="#ffffff"
     bordercolor="#666666"
     borderopacity="1"
     objecttolerance="10"
     gridtolerance="10"
     guidetolerance="10"
     inkscape:pageopacity="0"
     inkscape:pageshadow="2"
     inkscape:window-width="1853"
     inkscape:window-height="1025"
     id="namedview3904"
     showgrid="false"
     fit-margin-top="0"
     fit-margin-left="0"
     fit-margin-right="0"
     fit-margin-bottom="0"
     inkscape:zoom="4.9876937"
     inkscape:cx="194.11091"
     inkscape:cy="46.894999"
     inkscape:window-x="67"
     inkscape:window-y="27"
     inkscape:window-maximized="1"
     inkscape:current-layer="layer1"
     showguides="true" />
  <defs
     id="defs3841">
    <style
       id="style3839">.cls-1{fill:#9e1f63;}.cls-2{fill:#fff;}.cls-3{fill:#f15a29;}.cls-4{fill:#00a79d;}</style>
  </defs>
  <title
     id="title3843">group-t-spectrum-logo-color-and-white</title>
  <g
     inkscape:groupmode="layer"
     id="layer1"
     inkscape:label="bg"
     style="display:inline" />
  <path
     class="cls-1"
     d="m 26.42,55.469999 a 1.44,1.44 0 0 0 -1.37,-0.71 h -0.84 a 2.32,2.32 0 0 0 -1.88,0.84 10.54,10.54 0 0 1 -7.65,3.22 10.8,10.8 0 0 1 -10.79,-10.78 10.79,10.79 0 0 1 18.39,-7.36 2.45,2.45 0 0 0 1.88,0.79 h 0.72 a 1.51,1.51 0 0 0 1.4,-0.75 1.46,1.46 0 0 0 -0.28,-1.51 14.6,14.6 0 0 0 -11.32,-5.43 c -8,0 -14.68,6.53 -14.68,14.26 a 14.64,14.64 0 0 0 26.13,9 1.49,1.49 0 0 0 0.29,-1.57 z"
     id="path3845"
     inkscape:connector-curvature="0"
     style="fill:#9e1f63" />
  <path
     class="cls-1"
     d="M 76.28,58.559999 H 65.53 v -22.76 a 1.58,1.58 0 0 0 -1.72,-1.71 h -0.34 a 1.57,1.57 0 0 0 -1.72,1.71 v 24.7 a 1.58,1.58 0 0 0 1.72,1.71 h 12.81 a 1.58,1.58 0 0 0 1.72,-1.72 v -0.23 a 1.57,1.57 0 0 0 -1.72,-1.7 z"
     id="path3847"
     inkscape:connector-curvature="0"
     style="fill:#9e1f63" />
  <path
     class="cls-1"
     d="m 129.56,59.929999 -6.64,-8.46 a 8.45,8.45 0 0 0 5.87,-8.45 c 0,-5.34 -3.68,-8.93 -9.16,-8.93 h -7.67 a 1.57,1.57 0 0 0 -1.68,1.71 v 24.7 a 1.58,1.58 0 0 0 1.68,1.71 h 0.32 a 1.58,1.58 0 0 0 1.71,-1.72 v -8.53 h 4.32 l 7.38,9.36 a 2.24,2.24 0 0 0 1.86,0.9 h 0.88 a 1.49,1.49 0 0 0 1.44,-0.74 1.45,1.45 0 0 0 -0.31,-1.55 z m -4.65,-16.91 a 5,5 0 0 1 -5.28,5.28 h -5.62 v -10.55 h 5.62 a 4.94,4.94 0 0 1 5.28,5.27 z"
     id="path3849"
     inkscape:connector-curvature="0"
     style="fill:#9e1f63" />
  <path
     class="cls-2"
     d="m 137.06,57.879999 h 12.5 v 3.84 h -16.34 v -26.51 h 3.84 z"
     id="path3851"
     inkscape:connector-curvature="0"
     style="fill:#aaaaaa;fill-opacity:1" />
  <path
     class="cls-2"
     d="m 166.96,53.889999 h -9.53 c -1,2.43 -2.36,5.62 -3.19,7.83 h -4.15 l 10.68,-26.94 h 2.81 l 10.7,26.94 h -4.1 z m -8.09,-3.61 h 6.61 l -3.27,-9.38 z"
     id="path3853"
     inkscape:connector-curvature="0"
     style="fill:#aaaaaa;fill-opacity:1" />
  <path
     class="cls-2"
     d="m 174.76,53.739999 v -18.53 h 3.87 v 18.57 c 0,2.92 3.15,4.36 6,4.36 2.85,0 5.92,-1.48 5.92,-4.4 v -18.53 h 3.88 v 18.57 c 0,5.39 -5.24,8.2 -9.8,8.2 -4.56,0 -9.87,-2.77 -9.87,-8.24 z"
     id="path3855"
     inkscape:connector-curvature="0"
     style="fill:#aaaaaa;fill-opacity:1" />
  <path
     class="cls-2"
     d="m 199.06,61.719999 v -26.64 h 3 l 12.92,18.77 v -18.73 h 3.8 v 26.6 h -3 l -12.88,-18.58 v 18.58 z"
     id="path3857"
     inkscape:connector-curvature="0"
     style="fill:#aaaaaa;fill-opacity:1" />
  <path
     class="cls-2"
     d="m 225.71,38.959999 a 12.82,12.82 0 0 1 9.2,-4 12.45,12.45 0 0 1 12.37,9.85 h -3.8 a 8.64,8.64 0 0 0 -8.58,-6 9,9 0 0 0 -6.54,2.85 9.81,9.81 0 0 0 0,13.6 9.15,9.15 0 0 0 15.35,-3.5 h 3.76 c -1.52,6 -6.38,10.15 -12.57,10.15 a 12.67,12.67 0 0 1 -9.2,-4 13.76,13.76 0 0 1 0,-19 z"
     id="path3859"
     inkscape:connector-curvature="0"
     style="fill:#aaaaaa;fill-opacity:1" />
  <path
     class="cls-2"
     d="m 254.18,46.369999 h 11.25 v -11.16 h 3.85 v 26.51 h -3.88 v -11.51 h -11.22 v 11.51 h -3.83 v -26.51 h 3.83 z"
     id="path3861"
     inkscape:connector-curvature="0"
     style="fill:#aaaaaa;fill-opacity:1" />
  <circle
     class="cls-3"
     cx="60.040001"
     cy="19.329998"
     r="8.6999998"
     id="circle3863"
     style="fill:#f15a29" />
  <circle
     class="cls-3"
     cx="84.220001"
     cy="8.6500006"
     r="7.04"
     id="circle3865"
     style="fill:#f15a29" />
  <circle
     class="cls-4"
     cx="109.20999"
     cy="6.04"
     r="6.04"
     id="circle3867"
     style="fill:#00a79d" />
  <circle
     class="cls-4"
     cx="131.2"
     cy="9.21"
     r="4.71"
     id="circle3869"
     style="fill:#00a79d" />
  <path
     class="cls-2"
     d="m 161.97,83.210002 c 0,2.62 -0.3,4.83 -3.49,4.83 -2.66,0 -3.17,-1.82 -3.17,-3.24 v -0.07 h 1.67 v 0.08 a 1.58,1.58 0 0 0 1.59,1.81 c 1.42,0 1.75,-1.06 1.75,-3 v -1.76 a 2.13,2.13 0 0 1 -2.25,1.41 c -1.92,0 -2.75,-1.37 -2.75,-4.000003 v -5.44 c 0,-2.45 1.08,-3.9 3,-3.9 a 2,2 0 0 1 2.15,1.35 c 0,-0.36 0.07,-0.85 0.1,-1.14 H 162 c 0,0.71 -0.05,1.92 -0.05,3.51 z m -5,-9.250003 v 5.15 c 0,1.780003 0.47,2.650003 1.5,2.650003 1.59,0 1.84,-1.660003 1.84,-3.470003 v -3.9 c 0,-1.61 -0.17,-2.88 -1.66,-2.88 -1.18,-0.05 -1.66,0.85 -1.66,2.4 z"
     id="path3871"
     inkscape:connector-curvature="0"
     style="fill:#aaaaaa;fill-opacity:1" />
  <path
     class="cls-2"
     d="m 165.7,77.029999 v 2.18 c 0,1.380003 0.27,2.850003 1.64,2.850003 1.37,0 1.56,-1 1.56,-2.370003 v -0.12 h 1.62 v 0.1 c 0,1.570003 -0.37,3.830003 -3.18,3.830003 -2.61,0 -3.26,-1.74 -3.26,-4.420003 v -5.02 c 0,-2 0.73,-4.13 3.3,-4.13 2.57,0 3.18,1.88 3.18,4.14 v 3 z m 3.25,-1.37 v -1.72 c 0,-1.23 -0.18,-2.57 -1.59,-2.57 -1.41,0 -1.65,1.13 -1.65,2.59 v 1.7 z"
     id="path3873"
     inkscape:connector-curvature="0"
     style="fill:#aaaaaa;fill-opacity:1" />
  <path
     class="cls-2"
     d="m 171.53,70.139999 h 1.54 v -3.26 h 1.63 v 3.26 h 1.91 v 1.47 h -1.91 v 9.110003 c 0,0.69 0.13,1.38 1,1.38 a 4.39,4.39 0 0 0 0.85,-0.08 v 1.29 a 4.19,4.19 0 0 1 -1.38,0.19 c -1.19,0 -2.07,-0.53 -2.07,-2.48 v -9.410003 h -1.54 z"
     id="path3875"
     inkscape:connector-curvature="0"
     style="fill:#aaaaaa;fill-opacity:1" />
  <path
     class="cls-2"
     d="m 182.21,70.139999 c 0.91,4.91 1.79,9.59 1.91,11.090003 v 0 c 0.27,-2.100003 1.23,-6.720003 2,-11.090003 h 1.67 l -2.92,13.910003 c -0.78,3.64 -1.82,3.91 -3.25,3.91 a 4.66,4.66 0 0 1 -0.9,-0.1 v -1.53 a 4.14,4.14 0 0 0 0.73,0.08 c 1,0 1.39,-0.44 1.79,-2.61 l -2.88,-13.660003 z"
     id="path3877"
     inkscape:connector-curvature="0"
     style="fill:#aaaaaa;fill-opacity:1" />
  <path
     class="cls-2"
     d="m 195.63,73.809999 v 5.62 c 0,2.870003 -1.34,4.100003 -3.37,4.100003 -2.03,0 -3.3,-1.2 -3.3,-4.000003 v -5.75 c 0,-2.47 1.27,-3.85 3.38,-3.85 2.11,0 3.29,1.44 3.29,3.88 z m -5,0 v 5.8 c 0,1.520003 0.52,2.480003 1.67,2.480003 1.15,0 1.66,-0.72 1.66,-2.500003 v -5.82 c 0,-1.37 -0.47,-2.36 -1.66,-2.36 -1.19,0 -1.67,0.86 -1.67,2.36 z"
     id="path3879"
     inkscape:connector-curvature="0"
     style="fill:#aaaaaa;fill-opacity:1" />
  <path
     class="cls-2"
     d="m 204.28,79.829999 c 0,1.650003 0,2.880003 0,3.490003 h -1.57 c 0,-0.23 -0.07,-0.91 -0.07,-1.4 a 2.16,2.16 0 0 1 -2.35,1.61 c -1,0 -2.55,-0.38 -2.55,-3.350003 v -10 h 1.65 v 9.61 c 0,1.640003 0.44,2.270003 1.47,2.270003 1.03,0 1.75,-0.56 1.75,-3.270003 v -8.65 h 1.67 z"
     id="path3881"
     inkscape:connector-curvature="0"
     style="fill:#aaaaaa;fill-opacity:1" />
  <path
     class="cls-2"
     d="m 206.73,74.629999 c 0,-2.11 0,-3.36 0,-4.49 h 1.55 c 0,0.37 0.06,1.11 0.06,2 a 2.85,2.85 0 0 1 2.75,-2.22 v 2 c -1.66,0 -2.71,1.09 -2.71,3.39 v 7.920003 h -1.66 z"
     id="path3883"
     inkscape:connector-curvature="0"
     style="fill:#aaaaaa;fill-opacity:1" />
  <path
     class="cls-4"
     d="m 221.9,79.209999 v 0.18 c 0,2.250003 -0.57,4.140003 -3.18,4.140003 -2.46,0 -3.11,-1.72 -3.11,-4.380003 v -5.26 c 0,-2.25 0.83,-4 3.22,-4 2.57,0 3.07,1.89 3.07,3.68 v 0.64 h -1.62 v -0.43 c 0,-1.24 -0.21,-2.36 -1.46,-2.36 -1.08,0 -1.51,0.8 -1.51,2.47 v 5.64 c 0,1.270003 0.24,2.610003 1.48,2.610003 1.24,0 1.49,-0.7 1.49,-2.510003 v -0.42 z"
     id="path3885"
     inkscape:connector-curvature="0"
     style="fill:#00a79d" />
  <path
     class="cls-4"
     d="m 230.21,73.809999 v 5.62 c 0,2.870003 -1.34,4.100003 -3.37,4.100003 -2.03,0 -3.3,-1.2 -3.3,-4.000003 v -5.75 c 0,-2.47 1.27,-3.85 3.38,-3.85 2.11,0 3.29,1.44 3.29,3.88 z m -5,0 v 5.8 c 0,1.520003 0.52,2.480003 1.66,2.480003 1.14,0 1.67,-0.72 1.67,-2.500003 v -5.82 c 0,-1.37 -0.47,-2.36 -1.66,-2.36 -1.19,0 -1.67,0.86 -1.67,2.36 z"
     id="path3887"
     inkscape:connector-curvature="0"
     style="fill:#00a79d" />
  <path
     class="cls-4"
     d="M 232.28,83.320002 V 65.209999 h 1.65 v 18.140003 z"
     id="path3889"
     inkscape:connector-curvature="0"
     style="fill:#00a79d" />
  <path
     class="cls-4"
     d="m 242.74,73.809999 v 5.62 c 0,2.870003 -1.34,4.100003 -3.37,4.100003 -2.03,0 -3.3,-1.2 -3.3,-4.000003 v -5.75 c 0,-2.47 1.27,-3.85 3.38,-3.85 2.11,0 3.29,1.44 3.29,3.88 z m -5,0 v 5.8 c 0,1.520003 0.52,2.480003 1.67,2.480003 1.15,0 1.66,-0.72 1.66,-2.500003 v -5.82 c 0,-1.37 -0.47,-2.36 -1.66,-2.36 -1.19,0 -1.67,0.86 -1.67,2.36 z"
     id="path3891"
     inkscape:connector-curvature="0"
     style="fill:#00a79d" />
  <path
     class="cls-4"
     d="m 244.85,74.629999 c 0,-2.11 0,-3.36 0,-4.49 h 1.58 c 0,0.37 0.06,1.11 0.06,2 a 2.85,2.85 0 0 1 2.75,-2.22 v 2 c -1.66,0 -2.71,1.09 -2.71,3.39 v 7.920003 h -1.65 z"
     id="path3893"
     inkscape:connector-curvature="0"
     style="fill:#00a79d" />
  <path
     class="cls-2"
     d="m 260.39,73.809999 v 5.62 c 0,2.870003 -1.34,4.100003 -3.37,4.100003 -2.03,0 -3.3,-1.2 -3.3,-4.000003 v -5.75 c 0,-2.47 1.27,-3.85 3.38,-3.85 2.11,0 3.29,1.44 3.29,3.88 z m -5,0 v 5.8 c 0,1.520003 0.52,2.480003 1.67,2.480003 1.15,0 1.66,-0.72 1.66,-2.500003 v -5.82 c 0,-1.37 -0.47,-2.36 -1.65,-2.36 -1.18,0 -1.68,0.86 -1.68,2.36 z"
     id="path3895"
     inkscape:connector-curvature="0"
     style="fill:#aaaaaa;fill-opacity:1" />
  <path
     class="cls-2"
     d="m 262.5,74.139999 c 0,-2.64 0,-3.34 0,-4 h 1.57 a 12.69,12.69 0 0 1 0.07,1.35 2.34,2.34 0 0 1 2.41,-1.56 c 1.41,0 2.57,0.79 2.57,3.2 v 10.190003 h -1.65 v -9.870003 c 0,-1.29 -0.43,-2 -1.44,-2 -1.01,0 -1.86,0.56 -1.86,3.22 v 8.640003 h -1.65 z"
     id="path3897"
     inkscape:connector-curvature="0"
     style="fill:#aaaaaa;fill-opacity:1" />
  <circle
     class="cls-3"
     cx="43.739998"
     cy="48.960003"
     r="14.5"
     id="circle3899"
     style="fill:#f15a29" />
  <path
     class="cls-1"
     d="m 92.21,34.459999 a 14.5,14.5 0 1 0 14.5,14.5 14.5,14.5 0 0 0 -14.5,-14.5 z m 0,25.45 a 10.94,10.94 0 1 1 10.93,-10.94 10.94,10.94 0 0 1 -10.94,10.94 z"
     id="path3901"
     inkscape:connector-curvature="0"
     style="fill:#9e1f63" />
</svg>
