<?xml version="1.0"?><svg width="405.85809" height="478.33902" xmlns="http://www.w3.org/2000/svg">
 <title>pink and blue monster</title>

 <metadata id="metadata7">image/svg+xml</metadata>
 <g>
  <title>Layer 1</title>
  <g id="layer1">
   <path fill="#000000" stroke-width="10.683" stroke-miterlimit="4" id="path3627" d="m243.030701,38.672852c-41.571747,0.996582 -82.831787,20.251251 -112.774048,55.874435c-30.633141,35.410614 -47.55175,87.507538 -43.129219,139.009674c4.1362,56.653427 33.533661,107.127243 73.497841,135.074265c56.796204,40.864075 133.144836,36.344727 185.981903,-12.011108c35.999695,-31.997498 59.654388,-84.19519 59.245697,-139.09169c0.010132,-20.169617 -3.036682,-40.274872 -8.948975,-59.112946c-18.219879,-58.740295 -62.800598,-101.27243 -112.608337,-114.577423c-13.520508,-3.785599 -27.407562,-5.497421 -41.264862,-5.165207zm0.372894,14.019836c12.482819,-0.285767 24.978302,1.232254 37.121796,4.632294l0.041443,0.041l0.041412,0c44.484802,11.883087 85.914032,50.7435 102.789276,105.148895l0,0.040985c5.476654,17.449951 8.34082,36.237061 8.327545,55.01358l0,0.040955c0.378113,50.791397 -22.094452,99.704788 -54.646942,128.63826l-0.041412,0.041016l-0.041443,0.041016c-48.196167,44.108521 -116.572754,47.995667 -168.125305,10.904297l-0.041412,-0.040955l-0.041443,0c-36.01886,-25.18811 -63.744041,-72.295105 -67.57328,-124.743881l0,-0.041016l0,-0.040985c-4.090927,-47.640656 12.086685,-96.653961 39.897652,-128.802261l0.041443,-0.040985l0,-0.041c27.461212,-32.671463 64.802246,-49.933945 102.250671,-50.791214z"/>
   <path class="palette-filled-shape" fill="#007fff" stroke-width="10.683" stroke-miterlimit="4" id="path3143" d="m395.042084,220.380325c0.383698,52.066879 -22.142029,101.922287 -55.577057,131.939743c-49.276978,45.552307 -119.907532,49.662048 -172.752533,11.257568c-37.059265,-26.176819 -64.929619,-74.280212 -68.814613,-128.029099c-4.152267,-48.842377 12.027252,-98.700592 40.532234,-131.983292c37.329956,-44.860199 93.078857,-61.859497 143.147369,-47.699615c45.98938,12.408813 87.925903,52.519196 105.042877,108.260086c5.556702,17.883453 8.43512,37.061188 8.421722,56.254608z"/>
   <path fill="#ffffff" stroke="#000000" stroke-width="4.797167" stroke-miterlimit="4" id="path5083" d="m234.603699,174.142899c0.571808,22.409637 -20.729584,41.593048 -42.86554,39.807617c-22.173431,-0.433197 -41.388336,-21.677032 -38.46106,-43.881165c1.83371,-23.104797 26.400879,-40.19046 48.770966,-34.975739c18.264526,3.359039 32.866211,20.331299 32.555634,39.049286z"/>
   <path fill="#ffffff" stroke="#000000" stroke-width="4.797167" stroke-miterlimit="4" id="path5085" d="m379.952576,128.968735c0.485718,27.717773 -21.908295,52.562225 -48.833435,57.272278c-28.152557,6.091217 -59.685974,-9.859253 -69.759613,-37.178223c-9.581787,-23.693481 -0.115814,-52.635223 20.858917,-66.935776c24.662872,-18.248184 62.515472,-14.541183 82.815979,8.590317c9.461914,10.349762 14.989227,24.203308 14.918152,38.251404z"/>
   <path class="palette-filled-shape" fill="#ff00ff" fill-rule="evenodd" stroke="#000000" stroke-width="10.097001" stroke-miterlimit="4" id="path5087" d="m166.981232,275.618652c23.913177,55.057251 66.986603,80.627136 125.564545,75.686584c67.676056,-14.544189 88.554688,-89.064514 67.863708,-143.693619c-65.327515,0.688019 -151.59079,11.94809 -193.428253,68.007034z"/>
   <path class="palette-filled-shape" fill="#007fff" fill-rule="evenodd" stroke="#000000" stroke-width="4.797167" stroke-miterlimit="4" d="m321.368378,366.588135c4.23877,7.010132 8.936157,13.78717 16.546234,16.817749c7.610077,3.030579 13.95694,10.391602 20.143707,3.435303c8.766998,-9.857483 24.248596,-12.052124 36.933258,-6.776489c7.332489,3.049622 9.584381,7.11676 6.535553,14.566772c-4.480713,10.948914 -14.908875,18.384949 -26.670654,18.459045c-3.843536,0.024231 -13.320007,-3.301575 -6.165802,2.494202c9.443176,7.650085 17.270111,19.876404 14.280731,32.907654c-2.000397,8.720032 -13.393097,5.069763 -19.86618,4.473572c-15.803314,-1.455627 -29.446472,-11.262451 -41.336853,-21.333374c-3.932556,11.269958 -13.99057,20.936523 -26.641815,20.845276c-9.12851,-0.065857 -22.171112,1.808899 -26.777435,-4.431702c-7.374573,-9.991028 0.082214,-30.620239 12.364288,-39.904419c5.233521,-3.956055 18.675415,-5.024048 17.985168,-8.549438c-1.396606,-7.132751 -10.743256,-20.161316 -14.937988,-27.307739" id="path2802"/>
   <path fill="#000000" stroke-width="4.797167" stroke-miterlimit="4" id="path5089" d="m186.929138,170.164993c-4.300568,31.020874 -27.382172,10.647369 -14.590729,-12.471863c6.887543,-14.726288 17.747498,-3.375885 14.590729,12.471863z"/>
   <path fill="#000000" stroke-width="4.797167" stroke-miterlimit="4" id="path5091" d="m349.861389,121.538635c17.788177,55.097153 -47.034912,40.074997 -42.491211,-9.983765c1.995941,-28.517853 32.957092,-21.255753 42.491211,9.983765z"/>
   <path class="palette-filled-shape" fill="#007fff" fill-rule="evenodd" stroke="#000000" stroke-width="4.797167" stroke-miterlimit="4" id="path5133" d="m169.487183,365.306946c-5.014343,12.442139 -16.592316,38.782349 -33.875366,32.960022c-12.417885,-7.792297 -29.597984,-5.316101 -41.464226,4.268616c-6.857101,5.538696 -7.985214,10.585388 -2.410294,17.588257c8.196487,10.295959 21.628708,14.985413 34.181992,11.401123c4.10244,-1.171326 13.779991,-7.234985 7.348137,0.742493c-7.048012,11.547974 -12.186592,26.601318 -4.92981,39.582764c4.856567,8.687683 15.852814,1.241211 22.562286,-1.411438c16.381256,-6.476501 27.850922,-21.19635 37.370911,-35.652405c7.711517,10.8078 21.447662,17.995789 34.897034,13.957825c9.704407,-2.913574 24.18866,-4.984131 27.14212,-13.072083c4.737701,-12.973877 -9.659088,-32.667725 -25.642761,-38.753784c-6.814117,-2.594604 -21.465759,0.452698 -21.832123,-3.526184c-0.741241,-8.050476 7.083618,-22.442993 9.319061,-31.379578"/>
   <path fill="#000000" stroke-width="21.587252" stroke-miterlimit="4" id="path2808" d="m286.307007,53.258194c-17.523407,11.443512 -30.236603,30.637985 -35.815552,51.221527c9.437256,-15.191513 22.6716,-29.189651 38.54126,-39.553223c17.288971,-11.290405 34.823242,-16.400711 49.936859,-15.731125c-14.846436,-8.665665 -34.292236,-7.933777 -52.662567,4.06282z"/>
   <path fill="#000000" stroke-width="21.587252" stroke-miterlimit="4" d="m190.815552,103.795914c19.991974,5.166199 35.792786,21.155762 44.174286,41.839233c-11.841492,-12.92923 -27.577759,-22.849945 -45.683075,-27.52861c-19.724548,-5.097092 -38.974182,-3.140793 -54.96225,4.248413c14.752167,-16.258453 35.512787,-23.97493 56.471039,-18.559036z" id="path2813"/>
   <path class="palette-filled-shape" fill="#7f007f" fill-rule="evenodd" stroke="#000000" stroke-width="4.797" stroke-miterlimit="4" id="path2815" d="m140.200012,441.437134c-5.971252,3.870239 -9.106934,21.354919 -4.971588,24.209351c4.369568,3.016113 18.897095,-6.196594 29.179779,-14.157898c4.64502,-3.596436 -14.435516,-16.385437 -24.208191,-10.051453z"/>
   <path class="palette-filled-shape" fill="#7f007f" fill-rule="evenodd" stroke="#000000" stroke-width="4.797" stroke-miterlimit="4" d="m123.622276,403.604675c-5.072815,-2.405273 -24.152725,2.079407 -26.519455,5.803894c-2.500809,3.935547 9.625031,9.862976 19.73819,13.522705c4.568451,1.653137 15.083519,-15.390015 6.781265,-19.326599z" id="path3198"/>
   <path class="palette-filled-shape" fill="#7f007f" fill-rule="evenodd" stroke="#000000" stroke-width="4.797" stroke-miterlimit="4" id="path3200" d="m243.94101,428.955139c-0.453979,-6.504333 -12.151611,-22.898804 -15.94165,-23.04303c-4.004761,-0.152344 -3.050964,15.501526 -1.307587,27.791443c0.787537,5.551697 17.992218,5.89679 17.249237,-4.748413z"/>
   <path class="palette-filled-shape" fill="#7f007f" fill-rule="evenodd" stroke="#000000" stroke-width="4.797" stroke-miterlimit="4" d="m367.124176,425.666748c5.869537,2.429688 11.327728,17.00177 8.113831,20.081543c-3.395966,3.254211 -17.644775,-2.481995 -27.951691,-7.781738c-4.655975,-2.394043 10.231628,-16.276123 19.83786,-12.299805z" id="path3202"/>
   <path class="palette-filled-shape" fill="#7f007f" fill-rule="evenodd" stroke="#000000" stroke-width="4.797" stroke-miterlimit="4" id="path3204" d="m369.901215,390.989502c3.696594,-3.35675 21.214142,-4.719238 24.233185,-2.251282c3.190094,2.607788 -5.598694,10.779663 -13.271515,16.526489c-3.466125,2.596008 -17.011658,-8.781494 -10.96167,-14.275208z"/>
   <path class="palette-filled-shape" fill="#7f007f" fill-rule="evenodd" stroke="#000000" stroke-width="4.797" stroke-miterlimit="4" d="m273.72699,439.441406c-0.701324,-5.653503 6.822571,-21.662903 10.135071,-22.418457c3.500183,-0.79834 5.310242,12.784668 5.855682,23.614563c0.246368,4.892212 -14.842926,8.05658 -15.990753,-1.196106z" id="path3206"/>
   <path fill="#ffffff" fill-rule="evenodd" stroke="#000000" stroke-width="4.797167" stroke-miterlimit="4" id="path5131" d="m272.634399,346.892639c4.470917,-23.235535 11.2164,-33.627686 15.559845,-61.303406c30.260284,25.319946 33.99704,27.799438 50.837799,34.890076c-18.973755,16.740967 -40.939789,27.552368 -66.397644,26.41333z"/>
   <path fill="#ffffff" fill-rule="evenodd" stroke="#000000" stroke-width="4.797" stroke-miterlimit="4" id="path5093" d="m190.052551,258.369202c22.920166,14.097961 30.367584,35.008423 46.638245,48.605164c-2.315887,-1.448425 0.838287,-67.839951 14.555054,-79.269028c-27.464813,5.956177 -41.921021,15.603882 -61.193298,30.663864z"/>
   <path class="palette-filled-shape" fill="#7f007f" fill-rule="evenodd" stroke="#000000" stroke-width="4.797167" stroke-miterlimit="4" d="m272.79245,51.497711c-3.186615,-13.1465 -12.163055,-35.256073 -28.438477,-49.099121c7.7052,44.72934 -15.148834,70.277451 -12.236938,86.189041" id="path3633"/>
   <path class="palette-filled-shape" fill="#7f007f" fill-rule="evenodd" stroke="#000000" stroke-width="4.797167" stroke-miterlimit="4" id="path3635" d="m160.533752,80.563324c-2.858276,-13.221664 -4.408875,-37.031677 4.212555,-56.575806c12.548889,43.620209 44.252686,56.675247 48.562836,72.266647"/>
   <path fill="#ffffff" fill-rule="evenodd" stroke="#000000" stroke-width="4.797" stroke-miterlimit="4" d="m344.85675,214.756577c-11.349274,24.389069 -6.031219,45.939041 -12.108673,66.246841c1.133545,-2.484253 -38.112976,-56.142807 -55.861145,-58.12294c26.20108,-10.159729 43.583771,-10.073273 67.969818,-8.123901z" id="path3637"/>
   <path class="palette-filled-shape" fill="#007fff" fill-rule="evenodd" stroke="#000000" stroke-width="4.797167" stroke-miterlimit="8.3" d="m2.398575,306.125183c11.244202,-7.632141 24.013145,-19.445984 23.149361,-51.498123c7.347763,27.397781 23.618073,44.664871 33.974197,55.167862c-17.947952,-4.510132 -19.540497,3.239319 -23.305496,9.360352c-20.217178,34.28186 40.650345,28.649231 100.91938,23.311279l24.941162,23.542114c-111.171028,3.048401 -152.839928,-14.134888 -137.176445,-48.007446c-1.900681,-14.219543 -13.825653,-10.071716 -22.502159,-11.876038z" id="path3639"/>
  </g>
 </g>
</svg>