<svg  viewBox="0 0 500 500" width="64" height="64" xmlns="http://www.w3.org/2000/svg" xmlns:xlink="http://www.w3.org/1999/xlink">
  <defs>
    <linearGradient id="a">
      <stop offset="0" stop-color="#de9500"/>
      <stop offset="1" stop-color="#ffff0f"/>
    </linearGradient>
    <linearGradient gradientUnits="objectBoundingBox" id="c" spreadMethod="reflect" x1=".47" x2=".052" xlink:href="#a" y1=".523" y2=".32"/>
    <radialGradient cx=".495" cy=".554" fx=".495" fy=".554" id="b" r=".839" xlink:href="#a"/>
  </defs>
  <g fill-rule="evenodd">
    <path d="M160.684 249.035C107.461 199.705-49.735 136.81 41.86 61.582 285.698-116.006 577.81 265.067 472.6 400.724c-195.566 225.684-214.132-83.86-311.915-151.689zm48.858-21.548c34.657-27.131 89.118 11.1 60.65 46.864-40.846 33.297-89.119-11.1-60.65-46.864z" fill="url(#b)" stroke="#000" stroke-width="10" stroke-linejoin="round"/>
    <path class="palette-filled-shape" d="M58.582 77.5c35-27.5 90 11.25 61.25 47.5-41.25 33.75-90-11.25-61.25-47.5z" fill="red" stroke="#000" stroke-width="10" stroke-linejoin="round"/>
    <path class="palette-filled-shape" d="M198.582 53.75c35-27.5 90 11.25 61.25 47.5-41.25 33.75-90-11.25-61.25-47.5z" fill="#ff0" stroke="#000" stroke-width="10" stroke-linejoin="round"/>
    <path class="palette-filled-shape" d="M321.082 130c35-27.5 90 11.25 61.25 47.5-41.25 33.75-90-11.25-61.25-47.5z" fill="#00d400" stroke="#000" stroke-width="10" stroke-linejoin="round"/>
    <path class="palette-filled-shape" d="M392.332 248.75c35-27.5 90 11.25 61.25 47.5-41.25 33.75-90-11.25-61.25-47.5z" fill="#00f" stroke="#000" stroke-width="10" stroke-linejoin="round"/>
    <path class="palette-filled-shape" d="M347.332 398.75c35-27.5 90 11.25 61.25 47.5-41.25 33.75-90-11.25-61.25-47.5z" fill="#ed00f2" stroke="#000" stroke-width="10" stroke-linejoin="round"/>
    <path d="M81.234 478.212s23.919-1.896 50.444-45.472c13.263-9.473 20.842-9.474 31.262-21.788 13.263-23.683 1.895-34.104-8.526-37.893-13.263 0-7.58-4.737-33.157 1.894-25.577 19.895-23.683 21.789-24.63 46.42 2.842 31.261-6.867 50.207-15.393 56.839z" stroke="#000" stroke-width="1pt"/>
    <path d="M359.02 132.158c-18.588-18.588-63.197 18.587-28.81 43.68 29.739-2.788-19.517-38.104 28.81-43.68z" fill="#fff" fill-opacity=".25"/>
    <path d="M159.98 292.26C176.084 218.37 391.127 9.01 391.127 9.01c0 1.895 0 0 0 0l.948-.947c-.948 0-81.47 235.883-175.255 312.616-14.21-16.104-17.052-10.42-27.473-19.894-7.578-2.842-30.314-7.578-29.367-8.525z" fill="#8a6f1a" stroke="#000" stroke-width="10" stroke-linejoin="round"/>
    <g fill="url(#c)" stroke="#000" stroke-width="10" stroke-linejoin="round">
      <path d="M126.941 360.744c30.315-58.734 31.262-62.524 31.262-62.524s8.526-2.841 22.736-3.789c13.262 4.737 17.051 5.684 26.524 12.315 5.684 11.368 12.316 17.999 12.316 17.999l-47.366 61.576s-17.999-25.577-45.472-25.577z"/>
      <path d="M121.257 371.164c.948 0 19.894 1.895 26.525 3.79 6.632 1.894 20.841 14.209 21.789 16.104.947 1.894 1.894 0 4.736 1.894 2.842 1.895 6.632-4.736 6.632-7.578-3.789-8.526-7.738-17.328-21.948-20.17-14.21-4.737-36.393-10.54-39.234-4.855-1.895 3.79-5.131 7.026-4.184 7.973.947.948 6.632 4.737 5.684 2.842zM161.045 299.168s8.802-.277 19.223 2.565c8.526 1.894 17.723 4.46 26.249 12.985 4.737 6.632 8.525 10.028 15.156 10.028 6.632 0 6.632-.948 6.632-6.632-1.895-5.684-6.631-11.368-14.21-18.946-7.579-5.684-19.894-10.421-31.261-14.21-11.369-.947-23.684-3.79-30.315 3.789-.948 4.737.948 8.526.948 8.526l7.578 1.895z"/>
    </g>
    <path d="M172.413 278.326c-4.737-20.841 169.643-218.867 200.905-245.392 31.26-26.525-182.924 208.519-182.924 245.465-1.895 1.895-18.928.875-17.981-.073z" fill="#fff" fill-opacity=".348"/>
    <path d="M87.589 469.962s16.617-8.802 13.775-30.591c-2.842-21.788-2.842-27.472 2.841-41.682 8.526-12.315 17.053-19.893 19.894-17.999 7.579 6.631-4.736 8.526-10.42 23.683s-1.895 24.63-5.685 41.682c-4.736 17.999-20.405 25.855-20.405 24.907z" fill="#fff"/>
    <path d="M95.725 78.067c-18.587-18.587-63.197 18.587-28.81 43.68 29.74-2.788-19.517-38.104 28.81-43.68zM430.581 250.187c-18.587-18.587-63.197 18.588-28.81 43.68 29.74-2.787-19.517-38.103 28.81-43.68zM383.183 400.745c-18.587-18.587-63.197 18.587-28.81 43.68 29.74-2.788-19.517-38.104 28.81-43.68zM237.273 54.09c-18.588-18.586-63.197 18.588-28.81 43.681 29.739-2.788-19.518-38.104 28.81-43.68z" fill="#fff" fill-opacity=".25"/>
  </g>
</svg>